# xmcd
#
# Track frame offsets:
#	150
#	19308
#	31810
#	50490
#	64402
#	92699
#	113273
#	128276
#	145998
#	161855
#	175500
#	189935
#	216864
#
# Disc length: 3811 seconds
#
# Revision: 1
# Processed by: cddbd v1.5.2PL0 Copyright (c) Steve Scherf et al.
# Submitted via: audiograbber 1.83.01
#
DISCID=a70ee10d
DTITLE=Jamestown Ferry - when the bluebird sings...
DYEAR=2007
DGENRE=Acoustic
TTITLE0=Darcy Farrow
TTITLE1=Did I Tune My Guitar For This
TTITLE2=No Regrets
TTITLE3=Gulf Coast Highway
TTITLE4=La Belle Dame Sans Merci
TTITLE5=Bluebird Song
TTITLE6=Buckets Of Rain
TTITLE7=Morning Glass Of Apple Vinegar
TTITLE8=Love Is Like A Butterfly
TTITLE9=Ten To Twelve
TTITLE10=Dance Hall Saturday Night
TTITLE11=Whisper Of A Cloud
TTITLE12=Just Like Tom Thumb´s Blues
EXTD=
EXTT0=
EXTT1=
EXTT2=
EXTT3=
EXTT4=
EXTT5=
EXTT6=
EXTT7=
EXTT8=
EXTT9=
EXTT10=
EXTT11=
EXTT12=
PLAYORDER=
